# Blender 4.5.1 LTS
# www.blender.org
mtllib Optical_pad.mtl
o pad
v 0.014304 0.067019 0.025650
v 0.014304 0.126382 0.025650
v 0.012404 0.067019 0.025650
v 0.012404 0.126382 0.025650
v 0.014304 0.067019 -0.025650
v 0.012404 0.067019 -0.025650
v 0.014304 0.126382 -0.025650
v 0.012404 0.126382 -0.025650
v 0.018104 0.126382 0.025650
v 0.018104 0.126382 -0.025650
v 0.018104 0.067019 0.025650
v 0.018104 0.067019 -0.025650
vn -0.0000 -0.0000 1.0000
vn -0.0000 -1.0000 -0.0000
vn -0.0000 -0.0000 -1.0000
vn -0.0000 1.0000 -0.0000
vn 1.0000 -0.0000 -0.0000
vn -1.0000 -0.0000 -0.0000
s 0
usemtl coating
f 1//1 2//1 3//1
f 3//1 2//1 4//1
f 5//2 1//2 6//2
f 6//2 1//2 3//2
f 7//3 5//3 8//3
f 8//3 5//3 6//3
f 2//4 7//4 4//4
f 4//4 7//4 8//4
f 5//5 7//5 1//5
f 1//5 7//5 2//5
f 8//6 6//6 4//6
f 4//6 6//6 3//6
f 9//4 10//4 2//4
f 2//4 10//4 7//4
f 11//1 9//1 1//1
f 1//1 9//1 2//1
f 12//2 11//2 5//2
f 5//2 11//2 1//2
f 10//3 12//3 7//3
f 7//3 12//3 5//3
f 11//5 12//5 9//5
f 9//5 12//5 10//5
