# Blender 4.5.1 LTS
# www.blender.org
mtllib Prints_camera_housing.mtl
o camera_housing
v 0.005700 0.028220 -0.015500
v 0.004344 0.030747 -0.007656
v -0.005700 0.028220 -0.015500
v 0.003300 0.030747 -0.007656
v 0.005700 0.028220 0.015500
v -0.003300 0.030747 -0.007656
v -0.005700 0.028220 0.015500
v -0.004344 0.030747 -0.007656
v -0.005700 0.032120 -0.015500
v -0.003300 0.030247 -0.007656
v 0.002803 0.030247 -0.007656
v 0.005700 0.032120 -0.015500
v 0.004344 0.030747 0.004344
v 0.005700 0.032120 0.015500
v -0.005700 0.032120 0.015500
v -0.004344 0.030747 0.004344
v -0.004344 0.028220 -0.007656
v -0.004344 0.028220 0.004344
v -0.004344 0.028220 -0.007656
v -0.004344 0.028220 -0.007656
v 0.004344 0.028220 -0.011812
v 0.004344 0.028220 -0.015500
v -0.004344 0.028220 -0.007656
v 0.002815 0.028220 -0.007656
v 0.003641 0.028220 -0.009900
v 0.003641 0.028220 -0.015500
v -0.001597 0.028220 0.004344
v -0.003300 0.030247 -0.015500
v -0.003300 0.030730 -0.015500
v -0.003084 0.030747 -0.015500
v -0.003100 0.030247 -0.015500
v 0.000224 0.030247 -0.015500
v 0.001685 0.030747 -0.015500
v -0.003300 0.030747 -0.015500
v 0.003641 0.028220 -0.007656
v 0.004344 0.028220 0.004344
v 0.004344 0.028220 -0.007656
v 0.004344 0.028220 -0.007656
v 0.004344 0.028220 -0.007656
v 0.004344 0.028220 0.004344
v 0.004344 0.028220 0.004344
v 0.002831 0.030180 -0.015500
v 0.002803 0.030247 -0.015500
v 0.003300 0.030747 -0.015500
v 0.004310 0.028303 -0.015500
vn -1.0000 -0.0000 -0.0000
vn -0.0000 -1.0000 -0.0000
vn -0.0000 -0.0000 -1.0000
vn 1.0000 -0.0000 -0.0000
vn -0.0000 -0.0000 1.0000
vn -0.0000 1.0000 -0.0000
vn -0.9242 -0.3819 -0.0000
vn 0.9242 0.3819 -0.0000
vt 0.000000 0.000000
s 0
usemtl black_pla_diffuse
f 3/1/1 7/1/1 15/1/1 9/1/1
f 21/1/2 22/1/2 1/1/2
f 18/1/2 27/1/2 7/1/2 3/1/2 26/1/2 25/1/2 24/1/2 23/1/2 20/1/2 17/1/2 19/1/2
f 32/1/3 3/1/3 9/1/3 12/1/3 33/1/3 30/1/3 34/1/3 29/1/3 28/1/3 31/1/3
f 25/1/2 35/1/2 24/1/2
f 39/1/2 21/1/2 1/1/2 5/1/2 7/1/2 27/1/2 41/1/2 40/1/2 36/1/2 37/1/2 38/1/2
f 43/1/3 42/1/3 26/1/3 3/1/3 32/1/3
f 33/1/3 12/1/3 1/1/3 22/1/3 45/1/3 44/1/3
f 12/1/4 14/1/4 5/1/4 1/1/4
f 7/1/5 5/1/5 14/1/5 15/1/5
f 14/1/6 12/1/6 9/1/6
f 14/1/6 9/1/6 15/1/6
f 37/1/5 2/1/5 4/1/5 38/1/5
f 6/1/5 8/1/5 10/1/5
f 20/1/5 10/1/5 8/1/5 17/1/5
f 10/1/5 20/1/5 23/1/5 11/1/5
f 24/1/5 35/1/5 11/1/5 23/1/5
f 40/1/1 13/1/1 2/1/1 36/1/1
f 37/1/1 36/1/1 2/1/1
f 17/1/4 8/1/4 16/1/4 19/1/4
f 19/1/4 16/1/4 18/1/4
f 16/1/3 13/1/3 40/1/3 41/1/3
f 16/1/3 41/1/3 27/1/3 18/1/3
f 16/1/2 8/1/2 13/1/2
f 13/1/2 8/1/2 6/1/2
f 2/1/2 13/1/2 4/1/2
f 4/1/2 13/1/2 6/1/2
f 4/1/2 6/1/2 30/1/2 33/1/2 44/1/2
f 34/1/2 30/1/2 6/1/2
f 28/1/6 10/1/6 31/1/6
f 31/1/6 10/1/6 11/1/6 43/1/6 32/1/6
f 6/1/4 29/1/4 34/1/4
f 6/1/4 10/1/4 28/1/4 29/1/4
f 22/1/7 21/1/7 39/1/7 45/1/7
f 4/1/7 44/1/7 45/1/7 39/1/7 38/1/7
f 11/1/8 42/1/8 43/1/8
f 11/1/8 35/1/8 25/1/8 26/1/8 42/1/8
