# Blender 4.5.1 LTS
# www.blender.org
mtllib Prints_camera_housing.mtl
o camera_housing
v 0.008550 0.042330 -0.023250
v 0.004344 0.044857 -0.007656
v -0.008550 0.042330 -0.023250
v 0.003300 0.044857 -0.007656
v -0.003300 0.044857 -0.007656
v 0.008550 0.042330 0.023250
v -0.008550 0.042330 0.023250
v -0.004344 0.044857 -0.007656
v -0.008550 0.048180 -0.023250
v -0.003300 0.044357 -0.007656
v 0.008550 0.048180 -0.023250
v 0.002803 0.044357 -0.007656
v 0.008550 0.048180 0.023250
v 0.004344 0.044857 0.004344
v -0.008550 0.048180 0.023250
v -0.004344 0.044857 0.004344
v 0.004344 0.042330 0.004344
v 0.003641 0.042330 -0.007656
v 0.004344 0.042330 0.004344
v 0.004344 0.042330 -0.007656
v 0.004344 0.042330 0.004344
v -0.004344 0.042330 0.004344
v -0.004344 0.042330 -0.007656
v -0.004344 0.042330 -0.007656
v -0.004344 0.042330 -0.007656
v 0.003641 0.042330 -0.023250
v 0.004344 0.042330 -0.023250
v -0.003300 0.044357 -0.023250
v -0.003300 0.044824 -0.023250
v -0.002870 0.044857 -0.023250
v -0.002902 0.044357 -0.023250
v -0.002626 0.044357 -0.023250
v -0.001165 0.044857 -0.023250
v -0.003300 0.044857 -0.023250
v 0.002858 0.044225 -0.023250
v 0.002803 0.044357 -0.023250
v 0.004276 0.042495 -0.023250
v 0.003300 0.044857 -0.023250
vn -1.0000 -0.0000 -0.0000
vn -0.0000 -1.0000 -0.0000
vn -0.0000 -0.0000 -1.0000
vn 1.0000 -0.0000 -0.0000
vn -0.0000 -0.0000 1.0000
vn -0.0000 1.0000 -0.0000
vn -0.9242 -0.3818 -0.0000
vn -0.9242 -0.3819 -0.0000
vn 0.9242 0.3819 -0.0000
vt 0.000000 0.000000
vt 0.141404 0.548439
vt 0.141404 0.668439
vt 0.358596 0.668438
vt 0.358597 0.548439
vt 0.358597 0.543330
vt 0.341014 0.543329
vt 0.341014 0.548439
s 0
usemtl black_pla_diffuse
f 3/1/1 7/1/1 15/1/1 9/1/1
f 1/1/2 7/1/2 3/1/2 26/1/2 27/1/2
f 32/1/3 3/1/3 9/1/3 11/1/3 33/1/3 30/1/3 34/1/3 29/1/3 28/1/3 31/1/3
f 1/1/2 6/1/2 7/1/2
f 35/1/3 26/1/3 3/1/3 32/1/3 36/1/3
f 33/1/3 11/1/3 1/1/3 27/1/3 37/1/3 38/1/3
f 11/1/4 13/1/4 6/1/4 1/1/4
f 7/1/5 6/1/5 13/1/5 15/1/5
f 13/1/6 11/1/6 9/1/6
f 13/1/6 9/1/6 15/1/6
f 24/2/6 23/2/6 22/3/6 17/4/6 21/4/6 19/4/6 20/5/6 27/6/6 26/7/6 18/8/6 25/2/6
f 2/1/5 4/1/5 20/1/5
f 5/1/5 8/1/5 10/1/5
f 8/1/5 24/1/5 10/1/5
f 10/1/5 24/1/5 25/1/5 12/1/5
f 12/1/5 25/1/5 18/1/5
f 14/1/1 2/1/1 19/1/1 21/1/1
f 19/1/1 2/1/1 20/1/1
f 16/1/4 23/1/4 24/1/4 8/1/4
f 16/1/4 22/1/4 23/1/4
f 16/1/3 14/1/3 21/1/3 17/1/3
f 16/1/3 17/1/3 22/1/3
f 16/1/2 8/1/2 14/1/2
f 14/1/2 8/1/2 5/1/2
f 2/1/2 14/1/2 4/1/2
f 4/1/2 14/1/2 5/1/2
f 4/1/2 5/1/2 30/1/2 33/1/2 38/1/2
f 34/1/2 30/1/2 5/1/2
f 28/1/6 10/1/6 31/1/6
f 31/1/6 10/1/6 12/1/6 36/1/6 32/1/6
f 5/1/4 29/1/4 34/1/4
f 5/1/4 10/1/4 28/1/4 29/1/4
f 20/1/7 37/1/7 27/1/7
f 4/1/8 38/1/8 37/1/8 20/1/8
f 12/1/9 35/1/9 36/1/9
f 12/1/9 18/1/9 26/1/9 35/1/9
