# Blender 4.5.1 LTS
# www.blender.org
mtllib Prints_camera_housing.mtl
o camera_housing
v 0.011400 0.056441 -0.031000
v 0.004344 0.058967 -0.007656
v -0.011400 0.056441 -0.031000
v 0.003300 0.058967 -0.007656
v 0.011400 0.056441 0.031000
v -0.003300 0.058967 -0.007656
v -0.011400 0.056441 0.031000
v -0.004344 0.058967 -0.007656
v -0.011400 0.064241 -0.031000
v -0.003300 0.058467 -0.007656
v 0.002803 0.058467 -0.007656
v 0.011400 0.064241 -0.031000
v 0.011400 0.064241 0.031000
v 0.004344 0.058967 0.004344
v -0.011400 0.064241 0.031000
v -0.004344 0.058967 0.004344
v -0.004344 0.056441 -0.007656
v -0.004344 0.056441 0.004344
v -0.004344 0.056441 -0.007656
v -0.004344 0.056441 -0.007656
v 0.004344 0.056441 -0.011812
v 0.004344 0.056441 -0.031000
v -0.004344 0.056441 -0.007656
v 0.002815 0.056441 -0.007656
v 0.003641 0.056441 -0.009900
v 0.003641 0.056441 -0.031000
v -0.001597 0.056441 0.004344
v 0.003641 0.056441 -0.007656
v 0.004344 0.056441 0.004344
v 0.004344 0.056441 -0.007656
v 0.004344 0.056441 -0.007656
v 0.004344 0.056441 -0.007656
v 0.004344 0.056441 0.004344
v 0.004344 0.056441 0.004344
v -0.003300 0.058467 -0.031000
v -0.003300 0.058918 -0.031000
v -0.002656 0.058967 -0.031000
v -0.002705 0.058467 -0.031000
v -0.003300 0.058967 -0.031000
v 0.002885 0.058270 -0.031000
v 0.003300 0.058967 -0.031000
v 0.004242 0.056687 -0.031000
v 0.002803 0.058467 -0.031000
vn -1.0000 -0.0000 -0.0000
vn -0.0000 -1.0000 -0.0000
vn -0.0000 -0.0000 -1.0000
vn 1.0000 -0.0000 -0.0000
vn -0.0000 -0.0000 1.0000
vn -0.0000 1.0000 -0.0000
vn -0.9242 -0.3819 -0.0000
vn 0.9242 0.3819 -0.0000
vt 0.000000 0.000000
s 0
usemtl black_pla_diffuse
f 3/1/1 7/1/1 15/1/1 9/1/1
f 21/1/2 22/1/2 1/1/2
f 23/1/2 20/1/2 17/1/2 19/1/2 18/1/2 27/1/2 7/1/2 3/1/2 26/1/2 25/1/2 24/1/2
f 9/1/3 12/1/3 3/1/3
f 25/1/2 28/1/2 24/1/2
f 32/1/2 21/1/2 1/1/2 5/1/2 7/1/2 27/1/2 34/1/2 33/1/2 29/1/2 30/1/2 31/1/2
f 26/1/3 3/1/3 12/1/3 1/1/3 22/1/3 42/1/3 41/1/3 37/1/3 39/1/3 36/1/3 35/1/3 38/1/3 43/1/3 40/1/3
f 12/1/4 13/1/4 5/1/4 1/1/4
f 7/1/5 5/1/5 13/1/5 15/1/5
f 13/1/6 12/1/6 9/1/6
f 13/1/6 9/1/6 15/1/6
f 30/1/5 2/1/5 4/1/5 31/1/5
f 6/1/5 8/1/5 10/1/5
f 20/1/5 10/1/5 8/1/5 17/1/5
f 10/1/5 20/1/5 23/1/5 11/1/5
f 24/1/5 28/1/5 11/1/5 23/1/5
f 33/1/1 14/1/1 2/1/1 29/1/1
f 30/1/1 29/1/1 2/1/1
f 17/1/4 8/1/4 16/1/4 19/1/4
f 19/1/4 16/1/4 18/1/4
f 16/1/3 14/1/3 33/1/3 34/1/3
f 16/1/3 34/1/3 27/1/3 18/1/3
f 16/1/2 8/1/2 14/1/2
f 14/1/2 8/1/2 6/1/2
f 2/1/2 14/1/2 4/1/2
f 4/1/2 14/1/2 6/1/2
f 4/1/2 6/1/2 37/1/2 41/1/2
f 39/1/2 37/1/2 6/1/2
f 35/1/6 10/1/6 38/1/6
f 38/1/6 10/1/6 11/1/6 43/1/6
f 6/1/4 36/1/4 39/1/4
f 6/1/4 10/1/4 35/1/4 36/1/4
f 22/1/7 21/1/7 32/1/7 42/1/7
f 4/1/7 41/1/7 42/1/7 32/1/7 31/1/7
f 11/1/8 40/1/8 43/1/8
f 11/1/8 28/1/8 25/1/8 26/1/8 40/1/8
